<?xml version="1.0" encoding="UTF-8" standalone="no"?>
<!DOCTYPE svg PUBLIC "-//W3C//DTD SVG 1.1//EN" "http://www.w3.org/Graphics/SVG/1.1/DTD/svg11.dtd">
<svg width="100%" height="100%" viewBox="0 0 24 24" version="1.1" xmlns="http://www.w3.org/2000/svg" xmlns:xlink="http://www.w3.org/1999/xlink" xml:space="preserve" xmlns:serif="http://www.serif.com/" style="fill-rule:evenodd;clip-rule:evenodd;stroke-linejoin:round;stroke-miterlimit:2;">
    <path d="M21,9C21,4.03 16.97,0 12,0C7.03,0 3,4.03 3,9C3,13.632 6.501,17.443 11,17.941L11,20L8,20L8,22L11,22L11,24L13,24L13,22L16,22L16,20L13,20L13,17.941C17.499,17.443 21,13.632 21,9ZM5,9C5,5.14 8.14,2 12,2C15.86,2 19,5.14 19,9C19,12.86 15.86,16 12,16C8.14,16 5,12.86 5,9Z" style="fill:rgb(206,83,175);fill-rule:nonzero;"/>
</svg>
