<?xml version="1.0" encoding="UTF-8" standalone="no"?>
<!DOCTYPE svg PUBLIC "-//W3C//DTD SVG 1.1//EN" "http://www.w3.org/Graphics/SVG/1.1/DTD/svg11.dtd">
<svg width="100%" height="100%" viewBox="0 0 514 503" version="1.1" xmlns="http://www.w3.org/2000/svg" xmlns:xlink="http://www.w3.org/1999/xlink" xml:space="preserve" xmlns:serif="http://www.serif.com/" style="fill-rule:evenodd;clip-rule:evenodd;stroke-linejoin:bevel;">
    <g id="Layer-1" serif:id="Layer 1" transform="matrix(1,0,0,1,-114.58,-179.14)">
        <g id="rect2161" transform="matrix(0.9987,-0.050913,0.053798,0.99855,0,0)">
            <path d="M448.59,203.24L475.07,204.12L475.07,705.57L444.16,704.46L448.59,203.24Z" style="fill:white;fill-opacity:0.49;fill-rule:nonzero;stroke:black;stroke-width:0.99px;"/>
        </g>
        <path id="path2212" d="M468.58,677.84C469.81,667.72 468.88,655.28 466.12,645.12C461.41,627.72 451.05,603.48 445.98,598C444.92,596.85 443.88,595.03 443.68,593.96C443.47,592.9 441.71,588.67 439.76,584.56C437.81,580.45 434.8,573.49 433.06,569.09C426,551.18 423.37,546.59 416.47,540.2C396.47,521.65 393.08,517.41 387.19,503.59C385.43,499.47 383.48,495.06 382.86,493.8C382.2,492.46 381.73,486.4 381.73,479.3C381.74,466.75 381.99,464.54 383.46,463.47C383.93,463.13 383.78,461.85 383.13,460.64C382.41,459.29 382.22,456.89 382.63,454.42C383.03,452.08 382.79,448.55 382.07,445.95C381.16,442.72 381.11,440.89 381.88,439.29C382.47,438.08 383.21,434.9 383.53,432.21C384.59,423.21 371.01,393.08 362.4,385.34C359.49,382.73 349.25,378.84 340.94,377.18C331.9,375.38 308.58,373.2 306.57,373.97C303.35,375.2 305.05,380.29 316.57,403.99C320.72,412.51 324.11,419.97 324.11,420.57C324.11,422.17 328.89,431.34 330.13,432.1C331.49,432.95 336.11,440.24 336.11,441.55C336.11,442.64 343.02,457.95 346.06,463.59C347.1,465.52 348.92,469.79 350.1,473.09C351.28,476.39 352.63,479.99 353.11,481.09C353.58,482.19 355.13,486.24 356.56,490.09C359.52,498.08 370.06,519.42 374.78,527C381.12,537.17 383.12,539.57 389.32,544.44C398.01,551.27 403.85,558.48 408.85,568.55C411.18,573.25 413.1,577.55 413.1,578.11C413.1,578.68 414.68,581.53 416.61,584.46C418.54,587.38 419.86,590.18 419.55,590.68C418.64,592.16 416.11,591.72 416.11,590.09C416.11,589.27 415.43,588.59 414.61,588.59C412.42,588.59 412.66,594.16 414.92,595.78C415.91,596.5 417.78,599.28 419.06,601.95C421.69,607.42 420.9,608.9 415.9,607.9C414.14,607.55 413.11,607.77 413.11,608.49C413.11,610.09 408.33,608.8 404.61,606.21C402.32,604.6 400.08,604.11 395.03,604.09C390.06,604.08 388.01,603.64 386.66,602.29C383.96,599.58 382.62,600.71 382.96,605.42C383.2,608.71 382.92,609.59 381.65,609.59C374.67,609.59 366.15,593.25 366.12,579.81C366.11,576.35 365.51,572.08 364.78,570.31C364.02,568.49 363.61,564.89 363.84,562.02C364.13,558.27 363.82,556.6 362.67,555.64C361.81,554.93 361.11,553.84 361.11,553.22C361.1,552.6 359.98,550.78 358.61,549.19C357.23,547.59 356.07,546.01 356.03,545.69C355.62,542.52 354.99,541.11 353.67,540.37C352.81,539.89 352.11,538.68 352.11,537.69C352.11,536.7 350.76,534.03 349.11,531.75C347.46,529.47 346.11,527.22 346.11,526.74C346.11,526.26 340.59,517.59 333.85,507.48C322.08,489.82 309.86,467.16 305.03,454.02C303.83,450.76 301.16,445.84 299.1,443.09C297.03,440.34 294.55,436.52 293.58,434.59C291.73,430.92 284.47,419.88 282.66,417.99C280.75,415.99 269.3,399.21 259.76,384.45C255.23,377.43 254.74,381.79 256.38,414.59C256.64,419.82 257.37,425.99 258.01,428.31C259.05,432.11 258.96,432.74 257.12,434.58C255.86,435.84 255.24,437.48 255.51,438.86C255.75,440.09 256.52,445.76 257.21,451.46C258.15,459.22 259.05,462.7 260.78,465.26C262.06,467.14 263.11,469.18 263.11,469.8C263.11,470.41 264.4,474.78 265.99,479.5C267.57,484.23 269.64,490.76 270.6,494.03C271.55,497.3 273.46,501.68 274.85,503.78C279.43,510.7 280.98,522.75 277.61,525.21C275.36,526.86 272.9,526.94 267.86,525.54C263.35,524.29 261.11,520.6 261.1,514.39C261.09,511.86 260.08,508.03 258.63,505.09C257.28,502.34 256.15,499.3 256.14,498.34C256.12,497.38 255.63,496.59 255.05,496.59C253.63,496.59 254.87,505.37 256.7,508.28C258.52,511.18 256.9,520.2 254.1,522.81C253,523.83 252.08,524.99 252.04,525.38C251.54,530.5 250.65,532.49 247.3,536C245.15,538.25 243.11,540.9 242.76,541.88C242.25,543.34 241.76,543.47 240.12,542.6C237.73,541.32 237.62,540.05 239.57,536.3C240.99,533.58 241.97,526.12 241.02,525.17C240.76,524.91 238.76,525.12 236.58,525.62C230.93,526.93 214.85,526.81 209.3,525.41C199.83,523.03 194.99,518.62 197.66,514.82C198.94,512.99 198.93,512.56 197.53,511.16C196.21,509.83 196.14,509.01 197.14,505.99C198.75,501.1 197.12,499.73 194.27,503.58C191.82,506.9 187.3,507.99 189.07,504.84C190.43,502.43 193.11,495.54 193.11,494.47C193.11,493.99 192.43,493.59 191.61,493.59C189.89,493.59 189.59,490.51 191.15,488.95C191.87,488.22 191.65,486.86 190.4,484.5C188.16,480.24 187.12,479.48 184.61,480.25C181.88,481.08 181.14,482.46 181.12,486.72C181.11,490.15 179.13,493.28 177.81,491.96C177.48,491.63 177.46,490.07 177.77,488.5C178.53,484.75 177.59,482.47 175.61,483.23C174.62,483.61 174.26,484.51 174.64,485.69C174.96,486.71 174.76,488.35 174.2,489.32C173.22,490.99 173.17,491 173.14,489.34C173.1,487.07 173.07,487.07 167.11,490.59C161.99,493.61 156.92,494.39 154.11,492.61C152.78,491.77 152.81,491.1 154.32,486.89C155.83,482.67 155.86,481.86 154.57,479.89C153.76,478.66 153.11,476.34 153.11,474.72C153.11,471.99 151.92,468.17 145.98,451.84C143.92,446.16 143.83,445.1 144.94,440.34C145.62,437.45 146.6,432.84 147.11,430.09C147.63,427.34 148.79,423.14 149.69,420.75C152.23,414.08 150.97,407.68 145.35,398.64C142.27,393.69 140.78,390.24 140.93,388.37C141.24,384.31 138.65,380 133.82,376.51C130.77,374.3 129.17,372.19 128.04,368.84C126.29,363.68 124.61,362.43 123.62,365.55C122.71,368.43 121.11,367.1 121.11,363.47C121.11,361.78 119.98,358.98 118.55,357.1C114.36,351.61 113.6,347.14 115.76,340.79C117.02,337.07 118.31,335.08 119.85,334.5C121.09,334.03 122.11,333.18 122.11,332.62C122.11,330.6 122.31,330.08 123.38,329.42C123.98,329.05 124.56,328.15 124.68,327.42C124.8,326.69 125.06,325.42 125.25,324.59C125.63,323.01 124.15,322.86 119.55,324.02C117.84,324.44 117.16,324.31 117.59,323.62C118.7,321.82 123.47,319.8 128.95,318.8C133.29,318.01 134.13,318.09 133.7,319.22C133.14,320.66 134.86,321.01 137.52,319.98C139.53,319.21 139.59,317.59 137.61,317.59C135.43,317.59 135.77,315.83 138.08,315.1C139.34,314.7 140.47,312.95 141.19,310.29C142.78,304.37 150.7,293.65 153.55,293.55C154.13,293.53 155.84,291.89 157.36,289.89C159.77,286.71 160.11,285.38 160.11,279C160.11,270.03 161.5,268.08 167.28,269C169.38,269.34 171.11,269.24 171.11,268.79C171.11,266.76 175.4,263.59 178.15,263.59C179.96,263.59 181.11,263.07 181.11,262.25C181.11,260.2 184.47,257.59 187.11,257.59C188.53,257.59 190.52,256.32 192.13,254.39C195.4,250.48 200.71,249.98 204.33,253.24C205.58,254.37 209.98,257.11 214.11,259.33C221.45,263.27 221.88,263.37 234.17,263.93C241.08,264.24 247.63,264.27 248.73,263.98C250.8,263.44 257.42,251.62 258.73,246.12C260.52,238.61 266.36,231.53 272.82,229.06C282.28,225.45 297.81,230.04 315.95,241.81C324.24,247.19 326.1,247.75 336.47,247.92C345.64,248.08 347.11,248.37 351.89,251.02C354.8,252.63 359.01,255.93 361.24,258.35C363.5,260.8 367.07,263.37 369.32,264.17C374.5,265.99 386.02,266.03 388.63,264.23C389.72,263.49 397.53,259.32 405.99,254.98C417.85,248.9 423.23,245.46 429.49,239.96C444.02,227.19 450.68,217.1 448.22,211.59C447.85,210.77 447.59,207.39 447.64,204.09C447.8,194.07 449.58,190.04 454.16,189.37C456.71,189 457.44,189.33 458.14,191.19C460.13,196.41 467.17,196.48 473.69,191.34C476.9,188.82 482.49,186.63 485.8,186.61C487.01,186.6 489.24,187.66 490.76,188.97C493.3,191.15 493.43,191.59 492.28,194.1C491.22,196.44 491.28,197.13 492.7,198.69C493.82,199.93 494.18,201.48 493.79,203.42C493.45,205.12 493.77,207.09 494.57,208.24C495.37,209.38 495.95,212.94 495.98,216.95C496.03,223.5 495.9,223.86 491.99,228.11C487.84,232.6 480.9,235.57 474.45,235.61C472.89,235.62 471.15,235.95 470.58,236.36C467.96,238.24 462.11,246.15 462.11,247.8C462.11,248.82 461.41,249.92 460.57,250.24C459.27,250.74 455.78,255.97 455.65,257.61C455.63,257.9 454.59,259.23 453.36,260.55C452.12,261.88 451.11,263.53 451.11,264.22C451.11,265.99 439.7,280.83 437.15,282.37C435.98,283.08 435.27,284.04 435.56,284.51C435.85,284.98 434.52,286.57 432.6,288.03C430.68,289.5 429.11,291.26 429.11,291.95C429.11,293.31 418.87,303.57 417.46,303.62C416.99,303.64 415.11,305.01 413.28,306.68C409.97,309.68 409.96,309.72 411.7,312.4C412.67,313.88 413.99,315.54 414.65,316.09C415.31,316.64 416.33,318.55 416.93,320.34C417.52,322.12 421.52,328.2 425.83,333.84C432.55,342.64 443.41,359.01 450.95,371.7C453.79,376.48 460.11,392.22 460.11,394.52C460.11,395.52 461.23,398.87 462.59,401.97C464.35,405.94 465.64,407.59 466.97,407.59C469.59,407.59 488.27,401.56 490.11,400.12C494.25,396.88 544.22,377.76 560.61,373.14C576.15,368.76 580.47,368.13 594.77,368.11C607.52,368.09 609.21,368.3 611.77,370.16C613.33,371.3 615.4,372.52 616.38,372.89C617.35,373.25 618.45,374.34 618.81,375.32C619.18,376.29 620.28,377.67 621.25,378.37C622.23,379.08 624.21,381.99 625.64,384.85C627.75,389.05 628.25,391.48 628.27,397.57C628.31,411.54 628.08,412.46 620.52,428.09C619.19,430.84 616.51,437.37 614.56,442.59C607.96,460.32 605.23,465.98 592.49,488.31C586.77,498.33 580.66,509.58 578.91,513.31C577.16,517.04 574.45,521.99 572.89,524.31C569.45,529.43 562.15,551.46 562.23,556.48C562.36,564.9 561.89,568.52 560.53,569.65C559.46,570.54 559.37,571.2 560.18,572.17C560.94,573.1 560.97,575.07 560.28,578.79C559.03,585.45 559.46,604.74 560.97,610.21C561.6,612.48 563.01,615.47 564.11,616.87C565.21,618.26 566.11,620.39 566.11,621.59C566.11,623.07 567.03,624.11 569,624.86C574.03,626.76 576.72,633.91 573.82,637.67C571.91,640.15 562.73,644.36 556.39,645.67C546.38,647.73 536.61,646.76 528.32,642.87C526.51,642.02 524.87,641.5 524.66,641.71C524.45,641.92 523.96,646.82 523.57,652.59C523.19,658.37 522.48,663.58 522,664.18C521.52,664.78 521.41,665.56 521.75,665.91C522.1,666.25 521.78,669.92 521.05,674.06L519.71,681.59L508.59,681.59L508.96,673.59C509.15,669.19 508.96,664.8 508.53,663.84C508.09,662.88 507.7,658.04 507.66,653.09C507.53,637.93 505.98,605.2 505.34,604.16C505.01,603.63 504.83,601.58 504.95,599.61C505.07,597.65 504.71,588.18 504.16,578.57C502.49,549.33 501.92,525.96 502.93,527.59C503.77,528.96 506.46,538.71 506.66,541.09C506.7,541.64 507.08,543.55 507.5,545.34C508.29,548.68 510.65,549.65 512.79,547.51C513.38,546.91 516.74,544.97 520.24,543.19C524.79,540.87 527.05,539.03 528.15,536.73C529,534.96 530.01,533.83 530.4,534.22C530.79,534.61 531.14,533.39 531.18,531.51C531.23,529.63 531.46,527.19 531.7,526.09C531.95,524.99 532.34,521.84 532.57,519.09C533.08,512.95 533.64,510.37 534.99,507.95C535.91,506.31 537.86,498.14 542.71,475.59C544.19,468.69 544.49,464.59 543.51,464.59C543.18,464.59 538.91,468.36 534.02,472.96C518.99,487.1 505.42,495.69 485.33,503.77C479.56,506.09 476.9,507.7 476.54,509.09C476.25,510.19 476.48,518.74 477.04,528.09C477.6,537.44 478.32,551.17 478.65,558.59C478.97,566.02 479.67,577.94 480.2,585.09C480.74,592.24 481.13,601.33 481.07,605.28C481.02,609.23 481.48,613.43 482.11,614.59C482.93,616.13 482.94,617.08 482.16,618.03C481.4,618.95 481.35,622.16 481.99,628.72C482.5,633.87 482.9,638.99 482.87,640.09C482.84,641.19 483.17,650.98 483.6,661.84L484.38,681.59L468.12,681.59L468.58,677.84ZM524.6,611.84C525.47,609.71 525.62,602.66 524.84,600.59C524.53,599.77 524.02,597.93 523.71,596.51C523.41,595.1 521.95,592.63 520.48,591.05L517.8,588.15L518.45,592.62C520.97,609.74 521.82,613.59 523.12,613.59C523.54,613.59 524.21,612.8 524.6,611.84Z" style="fill:rgb(229,0,77);fill-rule:nonzero;"/>
    </g>
</svg>
