<?xml version="1.0" encoding="UTF-8" standalone="no"?>
<!DOCTYPE svg PUBLIC "-//W3C//DTD SVG 1.1//EN" "http://www.w3.org/Graphics/SVG/1.1/DTD/svg11.dtd">
<svg width="100%" height="100%" viewBox="0 0 24 24" version="1.1" xmlns="http://www.w3.org/2000/svg" xmlns:xlink="http://www.w3.org/1999/xlink" xml:space="preserve" xmlns:serif="http://www.serif.com/" style="fill-rule:evenodd;clip-rule:evenodd;stroke-linejoin:round;stroke-miterlimit:2;">
    <path d="M16,2L16,4L19.586,4L15.614,7.972C14.074,6.741 12.125,6 10,6C5.03,6 1,10.03 1,15C1,19.97 5.03,24 10,24C14.97,24 19,19.97 19,15C19,12.875 18.259,10.926 17.028,9.386L21,5.414L21,9L23,9L23,2L16,2ZM10,22C6.14,22 3,18.86 3,15C3,11.14 6.14,8 10,8C13.86,8 17,11.14 17,15C17,18.86 13.86,22 10,22Z" style="fill:rgb(81,115,180);fill-rule:nonzero;"/>
</svg>
