<?xml version="1.0" encoding="UTF-8" standalone="no"?>
<!DOCTYPE svg PUBLIC "-//W3C//DTD SVG 1.1//EN" "http://www.w3.org/Graphics/SVG/1.1/DTD/svg11.dtd">
<svg width="100%" height="100%" viewBox="0 0 24 24" version="1.1" xmlns="http://www.w3.org/2000/svg" xmlns:xlink="http://www.w3.org/1999/xlink" xml:space="preserve" xmlns:serif="http://www.serif.com/" style="fill-rule:evenodd;clip-rule:evenodd;stroke-linejoin:round;stroke-miterlimit:2;">
    <path d="M18,0L18,2L20.586,2L16.725,5.846C15.479,4.703 13.823,4 12,4C10.176,4 8.521,4.703 7.274,5.846L6.065,4.642L7.353,3.354L6.646,2.646L5.357,3.936L3.414,2L6,2L6,0L-0,0L-0,6L2,6L2,3.414L3.943,5.35L2.646,6.646L3.353,7.353L4.651,6.055L6.004,7.402C5.371,8.455 5,9.683 5,11C5,14.526 7.609,17.434 11,17.92L11,20L8,20L8,22L11,22L11,24L13,24L13,22L16,22L16,20L13,20L13,17.92C16.391,17.434 19,14.525 19,11C19,9.683 18.629,8.455 17.996,7.402L22,3.414L22,6L24,6L24,0L18,0ZM12,16C9.243,16 7,13.757 7,11C7,8.243 9.243,6 12,6C14.757,6 17,8.243 17,11C17,13.757 14.757,16 12,16Z" style="fill:rgb(215,105,62);fill-rule:nonzero;"/>
</svg>
